<svg xmlns="http://www.w3.org/2000/svg" viewBox="0 0 200 200"><defs><linearGradient id="g"><stop stop-color="#ecd9aa"/><stop offset="1" stop-color="#a76f3d"/></linearGradient><linearGradient id="j" y2="1"><stop stop-color="#fff9ea"/><stop offset="1" stop-color="#ddc59d"/></linearGradient><filter id="s"><feDropShadow dy="4" stdDeviation="3" flood-color="#5d3125" flood-opacity=".18"/></filter></defs><g filter="url(#s)" stroke-linecap="round" stroke-linejoin="round"><path d="M58 61c-4-20 15-35 33-25 9-17 35-15 42 5 20-1 32 20 20 36-11 15-33 15-46 2-9 12-22 19-39 22" fill="url(#j)" stroke="url(#g)" stroke-width="6"/><path d="M67 62c4-10 14-15 24-10 4-11 18-14 26-5 9-6 22 2 22 13 0 13-14 21-25 12-9 9-21 12-35 8" fill="none" stroke="#813a35" stroke-width="5"/><path d="M75 92c-15 17-21 33-15 49 7 18 27 24 43 12l26-24" fill="none" stroke="url(#g)" stroke-width="10"/><path d="M75 92c-15 17-21 33-15 49 7 18 27 24 43 12l26-24" fill="none" stroke="#7b332f" stroke-width="3"/><circle cx="134" cy="124" r="11" fill="url(#j)" stroke="#7b332f" stroke-width="4"/><path d="M134 135v23M126 159h16M130 166h8" stroke="url(#g)" stroke-width="4" fill="none"/></g></svg>