<svg xmlns="http://www.w3.org/2000/svg" viewBox="0 0 256 256"><defs><linearGradient id="g" x1="0" y1="0" x2="1" y2="1"><stop stop-color="#fffdf6"/><stop offset="1" stop-color="#f3ead5"/></linearGradient></defs><g fill="none" stroke="#c89a49" stroke-width="5" stroke-linecap="round" stroke-linejoin="round"><path fill="url(#g)" d="M70 160c28-7 43-27 51-54 5-17 13-33 30-42 14-8 29-5 37 2-16 2-28 12-34 24-8 16-8 36-2 53 4 12 14 29 32 37-25 7-51 2-70-12-14-10-24-24-30-39-4 14-5 30-2 46-15-3-26-8-32-15z"/><path d="M145 67c7-10 14-20 21-31M163 35l12 7M151 85c17 1 31 7 44 18M151 101c17 3 31 11 42 23M98 147c-17 4-31 13-43 28M104 161c-13 7-24 18-31 31"/><path stroke="#d95d4d" d="M165 41c7-6 14-9 21-8"/><path stroke="#2f7f6a" d="M122 124c-10 3-18 9-24 18"/></g><circle cx="181" cy="53" r="3.5" fill="#27312f"/></svg>