<svg xmlns="http://www.w3.org/2000/svg" viewBox="0 0 160 160" role="img" aria-labelledby="title desc"><title id="title">昭梧主印</title><desc id="desc">梧叶、昭光与东方印记结构构成的品牌主纹章。</desc><defs><linearGradient id="gold" x1="0" y1="0" x2="1" y2="1"><stop offset="0" stop-color="#e3c28a"/><stop offset=".48" stop-color="#b88348"/><stop offset="1" stop-color="#8a5b31"/></linearGradient><linearGradient id="jade" x1="0" y1="0" x2="0" y2="1"><stop offset="0" stop-color="#f5ead6"/><stop offset="1" stop-color="#dcc6a3"/></linearGradient><filter id="soft" x="-20%" y="-20%" width="140%" height="140%"><feDropShadow dx="0" dy="2" stdDeviation="1.7" flood-color="#4b2d1d" flood-opacity=".18"/></filter></defs><g filter="url(#soft)"><circle cx="80" cy="80" r="68" fill="none" stroke="url(#gold)" stroke-width="3"/><circle cx="80" cy="80" r="60" fill="#f7efe2" fill-opacity=".78" stroke="#7d3429" stroke-width="1.6"/><circle cx="80" cy="45" r="15" fill="none" stroke="url(#gold)" stroke-width="3"/><path d="M80 49C61 56 50 72 53 91c3 18 15 31 27 39 12-8 24-21 27-39 3-19-8-35-27-42Z" fill="url(#jade)" stroke="#7d3429" stroke-width="3.2" stroke-linejoin="round"/><path d="M80 61v55M80 75 64 65M80 84l19-12M80 94 62 107M80 103l15 10" fill="none" stroke="url(#gold)" stroke-width="4" stroke-linecap="round"/><path d="M80 12l4 7-4 7-4-7 4-7ZM80 134l4 7-4 7-4-7 4-7ZM12 80l7-4 7 4-7 4-7-4ZM134 80l7-4 7 4-7 4-7-4Z" fill="#7d3429"/></g></svg>