<svg xmlns="http://www.w3.org/2000/svg" viewBox="0 0 200 200"><defs><linearGradient id="g" x1="0" x2="1" y2="1"><stop stop-color="#ead6a6"/><stop offset=".5" stop-color="#c79455"/><stop offset="1" stop-color="#9b6337"/></linearGradient><linearGradient id="j" y2="1"><stop stop-color="#fff9ea"/><stop offset="1" stop-color="#ddc59d"/></linearGradient><filter id="s" x="-30%" y="-30%" width="160%" height="160%"><feDropShadow dy="4" stdDeviation="3" flood-color="#5d3125" flood-opacity=".18"/></filter></defs><g filter="url(#s)" stroke-linecap="round" stroke-linejoin="round"><path d="M100 24c25 10 43 30 45 55 2 31-16 57-45 76-29-19-47-45-45-76 2-25 20-45 45-55Z" fill="url(#j)" stroke="url(#g)" stroke-width="6"/><path d="M100 42c-18 9-29 22-30 38-1 20 10 38 30 53 20-15 31-33 30-53-1-16-12-29-30-38Z" fill="none" stroke="#813a35" stroke-width="5"/><path d="M100 54v67M100 70 74 60M100 82l29-10M100 96l-28 12M100 108l26 12" fill="none" stroke="url(#g)" stroke-width="5"/><circle cx="100" cy="24" r="8" fill="#8a3d37" stroke="#f4dda9" stroke-width="3"/><path d="M66 146c11 7 22 11 34 11s23-4 34-11M73 158c8 7 17 10 27 10s19-3 27-10" fill="none" stroke="#813a35" stroke-width="4"/><path d="M48 91c-12 1-20 6-26 14 12-2 22 1 31 9M152 91c12 1 20 6 26 14-12-2-22 1-31 9" fill="none" stroke="url(#g)" stroke-width="4"/></g></svg>