<svg xmlns="http://www.w3.org/2000/svg" viewBox="0 0 200 200"><circle cx="100" cy="100" r="94" fill="#08182b" stroke="#c7a05a" stroke-width="3"/><path d="M73 40a25 25 0 1 0 21 38A21 21 0 1 1 73 40Z" fill="#e8c978"/><circle cx="151" cy="48" r="3" fill="#e8c978"/><g fill="none" stroke="#315846" stroke-linecap="round" stroke-linejoin="round"><path d="M111 148c8-32 20-49 45-67" stroke-width="7"/><path d="M126 114c-12-13-25-16-38-11" stroke-width="4"/></g><g fill="#315846"><path d="M86 101c8-14 26-14 34 0-9 8-25 8-34 0Z"/><path d="M116 86c8-14 26-14 34 0-9 8-25 8-34 0Z"/><path d="M144 76c8-14 26-14 34 0-9 8-25 8-34 0Z"/></g><g fill="none" stroke="#c7a05a" stroke-width="4" stroke-linecap="round"><path d="M21 151h50c12 0 12 11 0 11H42"/><path d="M78 166h54c13 0 13 11 0 11H103"/></g></svg>