<svg xmlns="http://www.w3.org/2000/svg" viewBox="0 0 360 160"><g fill="none" stroke="#315846" stroke-linecap="round" stroke-linejoin="round"><path d="M55 128c36-54 91-67 174-58 36 4 61 19 82 42" stroke-width="9"/><path d="M135 96c-24-26-55-30-83-17" stroke-width="6"/><path d="M201 78c19-23 49-31 80-20" stroke-width="6"/></g><g fill="#315846"><path d="M29 75c15-27 52-27 67 0-17 16-50 16-67 0Z"/><path d="M91 59c15-27 52-27 67 0-17 16-50 16-67 0Z"/><path d="M169 52c15-27 52-27 67 0-17 16-50 16-67 0Z"/><path d="M244 62c15-27 52-27 67 0-17 16-50 16-67 0Z"/></g><circle cx="300" cy="32" r="18" fill="#c7a05a"/></svg>